<?xml version="1.0" ?><svg id="Layer_2" style="enable-background:new 0 0 32 32;" version="1.1" viewBox="0 0 32 32" xml:space="preserve" xmlns="http://www.w3.org/2000/svg" xmlns:xlink="http://www.w3.org/1999/xlink"><g><path d="M16,0.5c-5.48999,0-9.96002,4.46997-9.96002,9.95996c0,9.41003,8.42999,20.03003,8.79004,20.48004   C15.10999,31.28998,15.53998,31.5,16,31.5s0.89001-0.21002,1.16998-0.56c0.36005-0.45001,8.79004-11.07001,8.79004-20.48004   C25.96002,4.96997,21.48999,0.5,16,0.5z M16,16.01001c-3.06,0-5.54999-2.49005-5.54999-5.55005S12.94,4.90997,16,4.90997   s5.54999,2.48999,5.54999,5.54999S19.06,16.01001,16,16.01001z"/><path d="M16,7.90997c-1.40997,0-2.54999,1.14001-2.54999,2.54999c0,1.40002,1.14001,2.55005,2.54999,2.55005   s2.54999-1.15002,2.54999-2.55005C18.54999,9.04999,17.40997,7.90997,16,7.90997z"/></g></svg>